<svg width="69" height="63" viewBox="0 0 69 63" fill="none" xmlns="http://www.w3.org/2000/svg">
<path fill-rule="evenodd" clip-rule="evenodd" d="M53.0973 31.1576C53.0973 27.0077 52.3173 23.4107 50.7573 20.3685C49.1949 17.3262 46.967 15.0252 44.0713 13.4654C41.1755 11.9055 37.8507 11.1267 34.0994 11.1267C31.4279 11.1267 28.9587 11.558 26.6943 12.4206C24.4274 13.2853 22.4774 14.5416 20.8394 16.1914C19.2039 17.8413 17.9144 19.9497 16.9687 22.5146C16.0229 25.0794 15.5501 27.9604 15.5501 31.1576C15.5501 34.3798 16.0229 37.2943 16.9687 39.8969C17.9144 42.5015 19.2502 44.6602 20.9759 46.3749C22.7017 48.0897 24.6834 49.3711 26.9186 50.2233C29.1537 51.0733 31.6083 51.4983 34.2798 51.4983C37.6996 51.4983 40.844 50.7634 43.7105 49.2936C46.577 47.8238 48.8585 45.5563 50.5526 42.4889C52.2491 39.4195 53.0973 35.6424 53.0973 31.1576ZM34.0994 2C40.9415 2 46.8159 3.19134 51.725 5.57613C56.6317 7.96091 60.3464 11.3507 62.8668 15.7476C65.3872 20.1423 66.6474 25.3055 66.6474 31.235C66.6474 35.6173 65.9576 39.6017 64.5779 43.1841C63.1959 46.7686 61.1264 49.8736 58.3648 52.5033C55.6031 55.1331 52.2125 57.1452 48.1906 58.5375C44.1688 59.9278 39.5619 60.625 34.37 60.625C29.2074 60.625 24.5859 59.9089 20.5031 58.4789C16.4202 57.0468 13.0151 55.0305 10.2826 52.4259C7.55262 49.8233 5.48806 46.6911 4.09381 43.0291C2.69712 39.3693 2 35.4121 2 31.1576C2 26.8005 2.72881 22.8056 4.184 19.1687C5.63919 15.534 7.74763 12.4415 10.5093 9.88925C13.271 7.33697 16.6323 5.3835 20.5933 4.03094C24.5542 2.67628 29.0562 2 34.0994 2Z" fill="#F98756"/>
<path fill-rule="evenodd" clip-rule="evenodd" d="M53.0973 31.1576C53.0973 27.0077 52.3173 23.4107 50.7573 20.3685C49.1949 17.3262 46.967 15.0252 44.0713 13.4654C41.1755 11.9055 37.8507 11.1267 34.0994 11.1267C31.4279 11.1267 28.9587 11.558 26.6943 12.4206C24.4274 13.2853 22.4774 14.5416 20.8394 16.1914C19.2039 17.8413 17.9144 19.9497 16.9687 22.5146C16.0229 25.0794 15.5501 27.9604 15.5501 31.1576C15.5501 34.3798 16.0229 37.2943 16.9687 39.8969C17.9144 42.5015 19.2502 44.6602 20.9759 46.3749C22.7017 48.0897 24.6834 49.3711 26.9186 50.2233C29.1537 51.0733 31.6083 51.4983 34.2798 51.4983C37.6996 51.4983 40.844 50.7634 43.7105 49.2936C46.577 47.8238 48.8585 45.5563 50.5526 42.4889C52.2491 39.4195 53.0973 35.6424 53.0973 31.1576ZM34.0994 2C40.9415 2 46.8159 3.19134 51.725 5.57613C56.6317 7.96091 60.3464 11.3507 62.8668 15.7476C65.3872 20.1423 66.6474 25.3055 66.6474 31.235C66.6474 35.6173 65.9576 39.6017 64.5779 43.1841C63.1959 46.7686 61.1264 49.8736 58.3648 52.5033C55.6031 55.1331 52.2125 57.1452 48.1906 58.5375C44.1688 59.9278 39.5619 60.625 34.37 60.625C29.2074 60.625 24.5859 59.9089 20.5031 58.4789C16.4202 57.0468 13.0151 55.0305 10.2826 52.4259C7.55262 49.8233 5.48806 46.6911 4.09381 43.0291C2.69712 39.3693 2 35.4121 2 31.1576C2 26.8005 2.72881 22.8056 4.184 19.1687C5.63919 15.534 7.74763 12.4415 10.5093 9.88925C13.271 7.33697 16.6323 5.3835 20.5933 4.03094C24.5542 2.67628 29.0562 2 34.0994 2Z" stroke="#1E1E1E" stroke-width="4"/>
</svg>
