<svg width="61" height="60" viewBox="0 0 61 60" fill="none" xmlns="http://www.w3.org/2000/svg">
<path fill-rule="evenodd" clip-rule="evenodd" d="M5.58063 46.548L21.6722 28.854L8.13063 13.118C6.85563 11.592 5.89937 10.28 5.26187 9.184C4.62437 8.088 4.30562 7.036 4.30562 6.026C4.30562 4.992 4.91922 4.062 6.14375 3.236C7.37094 2.412 8.86641 2 10.6328 2C12.6622 2 14.24 2.448 15.3689 3.348C16.4952 4.246 18.057 5.914 20.0545 8.352L30.8469 21.504L42.375 8.352C43.3233 7.244 44.1334 6.296 44.8028 5.508C45.4748 4.72 46.1203 4.068 46.7419 3.55C47.3634 3.034 48.0594 2.646 48.827 2.388C49.5947 2.128 50.4872 2 51.5019 2C53.332 2 54.8275 2.412 55.9909 3.236C57.1517 4.062 57.7308 5.04 57.7308 6.174C57.7308 7.824 56.4717 10.064 53.9536 12.896L39.7745 28.854L55.032 46.548C56.408 48.1 57.4041 49.386 58.0256 50.408C58.6472 51.43 58.958 52.396 58.958 53.308C58.958 54.17 58.6791 54.958 58.1239 55.672C57.5687 56.386 56.7825 56.952 55.7678 57.372C54.7558 57.79 53.6109 58 52.3359 58C50.96 58 49.7992 57.784 48.8509 57.352C47.9027 56.922 47.135 56.386 46.5453 55.746C45.9583 55.106 44.8612 53.862 43.2595 52.016L30.6025 37.018L17.1592 52.458C16.1127 53.69 15.3689 54.552 14.9253 55.044C14.4844 55.536 13.9531 56.016 13.3316 56.484C12.71 56.952 11.9742 57.322 11.1242 57.592C10.2742 57.864 9.27547 58 8.13063 58C6.36688 58 4.90328 57.592 3.73984 56.78C2.57906 55.968 2 54.786 2 53.234C2 51.412 3.19266 49.184 5.58063 46.548Z" fill="#4A8EF5"/>
<path fill-rule="evenodd" clip-rule="evenodd" d="M5.58063 46.548L21.6722 28.854L8.13063 13.118C6.85563 11.592 5.89937 10.28 5.26187 9.184C4.62437 8.088 4.30562 7.036 4.30562 6.026C4.30562 4.992 4.91922 4.062 6.14375 3.236C7.37094 2.412 8.86641 2 10.6328 2C12.6622 2 14.24 2.448 15.3689 3.348C16.4952 4.246 18.057 5.914 20.0545 8.352L30.8469 21.504L42.375 8.352C43.3233 7.244 44.1334 6.296 44.8028 5.508C45.4748 4.72 46.1203 4.068 46.7419 3.55C47.3634 3.034 48.0594 2.646 48.827 2.388C49.5947 2.128 50.4872 2 51.5019 2C53.332 2 54.8275 2.412 55.9909 3.236C57.1517 4.062 57.7308 5.04 57.7308 6.174C57.7308 7.824 56.4717 10.064 53.9536 12.896L39.7745 28.854L55.032 46.548C56.408 48.1 57.4041 49.386 58.0256 50.408C58.6472 51.43 58.958 52.396 58.958 53.308C58.958 54.17 58.6791 54.958 58.1239 55.672C57.5687 56.386 56.7825 56.952 55.7678 57.372C54.7558 57.79 53.6109 58 52.3359 58C50.96 58 49.7992 57.784 48.8509 57.352C47.9027 56.922 47.135 56.386 46.5453 55.746C45.9583 55.106 44.8612 53.862 43.2595 52.016L30.6025 37.018L17.1592 52.458C16.1127 53.69 15.3689 54.552 14.9253 55.044C14.4844 55.536 13.9531 56.016 13.3316 56.484C12.71 56.952 11.9742 57.322 11.1242 57.592C10.2742 57.864 9.27547 58 8.13063 58C6.36688 58 4.90328 57.592 3.73984 56.78C2.57906 55.968 2 54.786 2 53.234C2 51.412 3.19266 49.184 5.58063 46.548Z" stroke="#1E1E1E" stroke-width="4" stroke-linejoin="round"/>
</svg>
